<svg height='100px' width='100px'  fill="#000000" xmlns="http://www.w3.org/2000/svg" viewBox="0 0 64 64" x="0px" y="0px"><g data-name="High pressure jet wash-jet wash-pressure washer"><path d="M59.99,2.86A1,1,0,0,0,59,2H44a1,1,0,0,0-1,1H10A1,1,0,0,0,9,2H3A1,1,0,0,0,2,3V8A1,1,0,0,0,3,9H9a1,1,0,0,0,1-1H43V9a1,1,0,0,0,1,1h6v4a1,1,0,0,0,1,1h2.74l.27,2.12A1,1,0,0,0,55,18h1.99L57,49a3,3,0,0,1-3,3H49V48a2.006,2.006,0,0,0-2-2H44V27a2.006,2.006,0,0,0-2-2H41V17a1,1,0,0,0-1-1H24a1,1,0,0,0-1,1v8H22a2.006,2.006,0,0,0-2,2V46H17a2.006,2.006,0,0,0-2,2V60a2.006,2.006,0,0,0,2,2h4a2.006,2.006,0,0,0,2-2H41a2.006,2.006,0,0,0,2,2h4a2.006,2.006,0,0,0,2-2V54h5a4.985,4.985,0,0,0,5-5l-.01-31H61a1.037,1.037,0,0,0,.76-.34,1.006,1.006,0,0,0,.23-.8ZM8,7H4V4H8ZM43,6H10V5H43ZM25,18H39v7H38V20a1,1,0,0,0-1-1H27a1,1,0,0,0-1,1v5H25Zm11,3v4H28V21ZM21,60H17V48h3V58a2,2,0,0,0,1,1.72Zm21-8H39.86a4,4,0,1,0,0,2H42v4H22V27H42Zm-4.28,2a2,2,0,1,1,0-2H36v2ZM47,60H43v-.28A2,2,0,0,0,44,58V54h3Zm0-8H44V48h3Zm5-39V10h1.12l.37,3Zm3.88,3-.89-7.12A1,1,0,0,0,54,8H45V4H58.13l1.72,12Z"></path><path d="M41,44V30a1,1,0,0,0-1-1H24a1,1,0,0,0-1,1V44a1,1,0,0,0,1,1H40A1,1,0,0,0,41,44Zm-2-1H25V31H39Z"></path><path d="M32,42a5,5,0,1,0-5-5A5.006,5.006,0,0,0,32,42Zm3-5a3,3,0,0,1-2,2.816V34.184A3,3,0,0,1,35,37Zm-4-2.816v5.632a2.982,2.982,0,0,1,0-5.632Z"></path></g></svg>